<svg xmlns="http://www.w3.org/2000/svg" viewBox="0 0 100 100">
  <rect width="100" height="100" fill="#000000"/>
  <g transform="translate(50,50)" fill="#FF2F92">
    <rect x="-6" y="-46" width="12" height="32" rx="2" transform="rotate(0)"/>
    <rect x="-6" y="-46" width="12" height="32" rx="2" transform="rotate(36)"/>
    <rect x="-6" y="-46" width="12" height="32" rx="2" transform="rotate(72)"/>
    <rect x="-6" y="-46" width="12" height="32" rx="2" transform="rotate(108)"/>
    <rect x="-6" y="-46" width="12" height="32" rx="2" transform="rotate(144)"/>
    <rect x="-6" y="-46" width="12" height="32" rx="2" transform="rotate(180)"/>
    <rect x="-6" y="-46" width="12" height="32" rx="2" transform="rotate(216)"/>
    <rect x="-6" y="-46" width="12" height="32" rx="2" transform="rotate(252)"/>
    <rect x="-6" y="-46" width="12" height="32" rx="2" transform="rotate(288)"/>
    <rect x="-6" y="-46" width="12" height="32" rx="2" transform="rotate(324)"/>
    <circle r="14"/>
  </g>
</svg>
